# Blender v2.90.1 OBJ File: ''
# www.blender.org
mtllib Roca1.mtl
o Rocks01_Mesh.002
v -2.121665 0.000000 -0.489887
v 0.194597 0.000000 -0.302399
v -2.531261 0.000000 -2.090552
v 0.194597 0.000000 -2.638312
v -1.893580 1.675597 -0.679390
v -1.722441 2.232023 -1.723832
v -0.689513 2.010174 -1.897986
v -0.456201 1.072136 -0.715132
v -2.311516 1.095171 -0.796077
v -0.456201 1.072137 -2.225580
v -2.194627 1.164274 -1.949981
v -0.672067 0.778871 -1.346627
v 0.233032 0.982584 -2.354397
v -0.279909 1.126697 -2.542763
v -1.050308 0.944208 -2.168122
v -0.122574 -0.053877 -0.855966
v 0.941713 -0.053877 -2.648792
v -0.450172 -0.053877 -3.292804
v -1.453341 -0.053877 -2.319100
v 1.475219 -0.005796 -1.001095
v 2.633888 -0.005796 -0.454726
v 1.836467 -0.005796 1.275047
v 0.962888 -0.005796 0.980625
v 1.694776 1.249601 -0.363913
v 1.433756 1.206898 -0.122431
v 1.717970 1.249602 0.447231
v 2.082796 1.243679 -0.283502
v 1.298496 0.873312 0.525594
v 1.534622 0.940632 -0.716345
v 1.874182 0.779056 0.935906
v 2.462139 0.577676 -0.164809
v -2.916901 -0.000000 2.322301
v -2.537448 -0.000000 0.339265
v -0.350752 -0.000000 0.697241
v -0.774189 -0.000000 2.539797
v -0.781688 1.125746 2.070743
v -0.689158 0.794737 0.640175
v -2.270309 1.086546 0.424118
v -1.314174 0.862971 1.972469
v -0.662111 0.469055 2.568069
v -0.493707 0.408950 1.851477
v -1.002446 0.862971 1.341288
v -1.467194 -0.118670 2.499102
v -0.271148 -0.118670 3.039002
v -0.111084 -0.118670 1.685197
v -0.876583 -0.118670 1.077841
v 0.573818 -0.058110 0.845426
v 1.642409 -0.058110 1.459509
v 0.893870 -0.058110 2.247108
v -0.138216 -0.058110 1.638977
v 0.585836 0.408506 1.306357
v 0.350208 0.408506 1.514138
v 0.696846 0.408506 1.756857
v 1.010235 0.408506 1.525740
v 0.124955 0.255391 1.537093
v 0.644044 0.401646 1.123283
v 0.763407 0.255391 2.153598
v 1.256231 0.401646 1.551940
v -1.672376 1.384773 1.668015
v -0.985978 1.151965 1.650575
v -1.098674 1.133877 0.958513
v -1.918239 1.307550 1.053329
v -1.838094 1.111409 1.850842
v -0.915550 0.949465 1.804262
v -0.979196 0.672497 0.463917
v -2.029500 1.111409 0.555807
v 2.716027 -0.005796 0.548100
v 2.130977 1.146370 0.060419
v 2.542123 0.577676 0.273149
v 0.624461 -0.017514 -0.455906
v 1.027578 0.934659 -0.175131
v 0.065419 0.823614 -1.717781
v 0.744695 -0.053877 -1.317623
v -1.229061 -0.053877 -3.076994
v -0.412711 0.868356 -1.494319
v -0.061127 1.189201 -2.293471
v -0.637796 1.171482 -2.170240
v -0.809544 0.974923 -1.921310
v -0.464242 0.950943 -2.712677
v -0.571072 0.964843 -2.675106
v -0.623319 1.116194 -2.492408
v -0.342431 1.243520 -2.303215
v -2.288322 0.000000 -2.638312
v -1.644075 2.144273 -2.045036
v -2.012155 0.979999 -2.200165
v -0.673566 0.000000 -0.099809
v -0.907095 1.664440 -0.644513
v -1.034506 1.072136 -0.418798
v -1.683733 1.832461 -0.860126
v -1.898287 2.113364 -1.624278
v -0.688752 1.542761 -0.840938
v -0.744627 1.832727 -1.024400
v 0.369410 0.000000 -1.389083
v -0.542257 1.994447 -1.379920
v -0.281388 1.072137 -1.389083
v -2.563060 0.000000 -0.834685
v -0.978128 -0.000000 2.665756
v -2.285618 1.186216 1.814811
v -0.127801 0.408950 2.323108
v 0.077890 -0.118670 2.527843
v -0.280730 0.408950 2.478996
v -0.449498 -0.118670 3.055338
v -0.256494 -0.000000 0.867804
v -0.574915 0.795301 0.812159
v -2.157327 -0.000000 -0.006139
v -2.087115 1.098470 0.367284
v -2.445277 1.088540 1.927577
v -1.899249 -0.000000 2.836606
v -1.485387 1.144688 2.179297
v -1.654731 1.041137 2.317979
v -1.778277 1.308258 1.807115
v -0.718401 0.983915 2.179060
v -1.279249 -0.000000 0.066657
v -1.397442 0.914693 0.234981
v 0.331426 -0.058110 2.096078
v 0.415917 0.255391 2.056546
v 1.536008 -0.058110 1.774394
v 1.277687 0.328518 1.773854
v 0.724465 -0.008273 0.270286
v 1.459953 1.209300 0.266566
v 1.103076 0.910877 0.219899
v -2.609489 0.222154 -0.397734
v -2.758876 0.222154 -0.470603
v -2.806987 0.222154 -0.251947
v -2.630397 0.222154 -0.145837
v -2.386778 -0.024720 -0.497285
v -2.919126 -0.024720 -0.683814
v -2.815869 0.141145 -0.575968
v -2.508231 0.218524 -0.406509
v -3.046957 -0.024720 -0.361502
v -3.010474 0.141145 -0.328265
v -3.006420 -0.024720 -0.056065
v -2.644999 -0.024720 0.161529
v -2.697238 0.179834 0.035235
v -2.987258 0.141144 -0.138799
v -2.469560 -0.024720 0.149505
v -2.593199 0.218524 -0.020348
v 1.352546 0.081976 -1.131030
v 1.176298 0.073428 -1.340823
v 0.995127 0.084115 -1.147436
v 1.216938 0.053658 -0.920505
v 1.408663 0.037053 -1.137295
v 1.414784 -0.042103 -1.141943
v 1.186149 0.001693 -1.409419
v 0.777821 -0.047865 -1.094460
v 1.074943 -0.007817 -0.783698
v 0.782521 0.130141 -2.800914
v 0.905376 0.130141 -2.960917
v 0.656996 0.130141 -3.071111
v 0.488017 0.130141 -2.886811
v 0.798771 -0.065422 -2.657111
v 1.027744 -0.065422 -3.040828
v 0.797777 -0.065422 -3.191024
v 0.554282 -0.065422 -3.207860
v 0.328227 -0.065422 -2.961731
v 0.309816 -0.065423 -2.823652
v 0.284111 0.080974 -3.240322
v 0.235793 0.080974 -3.125019
v 0.369041 0.080974 -3.080558
v 0.438432 0.080974 -3.216252
v 0.264192 -0.018130 -3.330657
v 0.181152 -0.018130 -3.061030
v 0.522369 -0.018130 -3.275380
v 0.308472 -0.018130 -2.989033
v 0.431621 -0.018130 -3.003812
v 0.524485 -0.018130 -3.185070
v 0.213153 0.080974 2.296320
v 0.164836 0.080974 2.411623
v 0.298084 0.080974 2.456084
v 0.367475 0.080974 2.320389
v 0.193235 -0.018130 2.205985
v 0.110194 -0.018130 2.475612
v 0.451412 -0.018130 2.261262
v 0.237514 -0.018130 2.547609
v 0.360663 -0.018130 2.532830
v 0.453527 -0.018130 2.351572
v -2.757802 0.080974 0.295441
v -2.875721 0.080974 0.253916
v -2.912353 0.080974 0.389526
v -2.772849 0.080974 0.450901
v -2.668780 -0.018130 0.270299
v -2.942782 -0.018130 0.203091
v -2.708937 -0.018130 0.531255
v -3.007247 -0.018130 0.334385
v -2.985326 -0.018130 0.456466
v -2.798970 -0.018130 0.538623
vt 0.139097 0.153660
vt 0.788331 0.153323
vt 0.894165 0.576662
vt 1.000000 1.000000
vt 0.173437 1.000000
vt 0.105579 0.934528
vt 0.000000 0.000000
vt 0.500000 0.000000
vt 0.500000 0.500000
vt 0.000000 0.500000
vt 0.000000 0.000000
vt 0.500000 0.000000
vt 0.500000 0.500000
vt 0.000000 0.500000
vt 0.000000 0.000000
vt 0.924539 0.000000
vt 0.883299 0.500000
vt 0.000000 0.500000
vt 0.092965 0.000000
vt 0.546482 0.000000
vt 0.783543 0.500000
vt 0.134170 0.500000
vt 1.000000 0.500000
vt 0.784454 0.931093
vt 0.715740 0.931479
vt 1.000000 0.500000
vt 0.576662 1.000000
vt 0.826563 1.000000
vt 0.000000 1.000000
vt 1.000000 0.929372
vt 0.162232 0.923032
vt 0.000000 0.000000
vt 0.500000 0.000000
vt 1.000000 0.000000
vt 1.000000 0.585842
vt 0.640263 1.000000
vt 0.000000 1.000000
vt 1.000000 0.000000
vt 0.500000 0.000000
vt 1.000000 0.000000
vt 1.000000 1.000000
vt 1.000000 0.733055
vt 1.000000 1.000000
vt 0.000000 1.000000
vt 0.731636 1.000000
vt 0.931546 1.000000
vt 0.500000 1.000000
vt 0.000000 1.000000
vt 0.000000 0.000000
vt 0.000000 0.000000
vt 0.000000 0.000000
vt 0.533713 0.000000
vt 1.000000 0.496314
vt 1.000000 1.000000
vt 0.366235 1.000000
vt 0.000000 0.646645
vt 0.000000 0.000000
vt 0.805401 0.000000
vt 0.727590 0.500000
vt 0.000000 0.500000
vt 0.305544 0.000000
vt 1.000000 0.000000
vt 1.000000 0.500000
vt 0.416646 0.500000
vt 0.000000 0.000000
vt 0.820924 0.000000
vt 0.727590 0.500000
vt 0.000000 0.500000
vt 0.196308 0.000000
vt 1.000000 0.000000
vt 1.000000 0.500000
vt 0.283319 0.500000
vt 0.533713 1.000000
vt 0.000000 1.000000
vt 0.356662 0.709519
vt 0.633765 1.000000
vt 0.000000 1.000000
vt 1.000000 1.000000
vt 0.353355 1.000000
vt -0.022391 0.598509
vt 0.900353 0.607122
vt 1.823097 0.615735
vt 0.600422 1.436664
vt 0.318624 1.515517
vt -0.536902 1.501588
vt -1.392427 1.487659
vt 0.000000 0.000000
vt 0.462285 0.000000
vt 0.462909 0.456551
vt 0.001144 0.476880
vt 0.083897 0.000000
vt 0.927422 0.000000
vt 0.918253 0.500000
vt -0.013129 0.544314
vt 0.059686 0.000000
vt 0.506782 0.000000
vt 0.509253 0.500000
vt 0.080431 0.500000
vt 0.051076 0.000000
vt 1.000000 0.000000
vt 0.971161 0.457820
vt 0.066870 0.455692
vt 0.000000 0.000000
vt 0.867617 0.000000
vt 1.000000 0.195837
vt 1.000000 0.500000
vt 1.000000 1.000000
vt 0.000000 1.000000
vt 0.000000 0.000000
vt 0.874287 0.000000
vt 1.000000 0.500000
vt 1.000000 1.000000
vt 0.000000 1.000000
vt 0.000000 0.000000
vt 1.000000 0.000000
vt 1.000000 1.000000
vt 0.000000 1.000000
vt 0.000000 0.000000
vt 1.000000 0.000000
vt 1.000000 0.500000
vt 0.000000 0.500000
vt 0.000000 0.000000
vt 0.500000 0.000000
vt 0.500000 0.500000
vt 0.000000 0.500000
vt 0.000000 0.000000
vt 0.500000 0.000000
vt 0.500000 0.500000
vt 0.000000 0.500000
vt 0.000000 0.000000
vt 1.000000 0.000000
vt 1.000000 0.500000
vt 0.000000 0.500000
vt 1.000000 1.000000
vt 0.000000 1.000000
vt 1.000000 0.500000
vt 0.000000 1.000000
vt 1.000000 0.500000
vt 1.000000 1.000000
vt 0.000000 1.000000
vt 1.000000 1.000000
vt 0.026073 0.645985
vt 1.857196 0.592840
vt 0.479088 1.518130
vt -1.395221 1.487614
vt 0.000000 0.500000
vt 0.000000 0.500000
vt 1.963353 0.521563
vt 0.479088 1.518130
vt -1.515972 1.485648
vt -0.002855 0.074967
vt 0.074134 0.581460
vt -0.399357 0.401231
vt -0.272884 0.912690
vt -0.047687 0.100748
vt 0.137937 0.021295
vt 0.194860 0.587104
vt 0.033741 0.626288
vt 0.069633 0.765708
vt 0.282139 1.200829
vt -0.032728 0.009954
vt -0.005235 0.510596
vt 0.004714 0.537495
vt 0.102809 1.022745
vt 0.061334 1.037364
vt 1.000000 0.000000
vt 0.000000 0.929372
vt 0.827473 1.109612
vt 0.076637 1.033461
vt 0.712518 1.043914
vt 0.055702 1.165283
vt 0.851570 1.123930
vt 1.000000 0.000000
vt 0.153323 1.000000
vt 0.000000 0.931093
vt 1.000000 0.000000
vt 0.067314 0.564608
vt 0.526869 0.559912
vt -0.121082 0.053579
vt 1.000000 0.092556
vt -0.012038 0.019139
vt 0.002550 0.516734
vt 0.001050 0.534188
vt 0.895424 0.549990
vt -0.001931 -0.028221
vt -0.007420 0.446621
vt 0.924569 0.000000
vt 0.924673 0.436222
vt 0.986424 0.555215
vt 0.094496 0.500000
vt 0.953878 0.000000
vt 0.938075 0.500000
vt 1.000000 0.000000
vt 1.000000 0.000000
vt 0.000000 0.000000
vt 1.000000 0.000000
vt 1.000000 1.000000
vt 0.000000 1.000000
vt 0.000000 0.000000
vt 1.000000 0.000000
vt 1.000000 0.500000
vt 0.000000 0.500000
vt 0.000000 0.000000
vt 0.500000 0.000000
vt 0.500000 0.500000
vt 0.000000 0.500000
vt 0.000000 0.000000
vt 0.500000 0.000000
vt 0.500000 0.500000
vt 0.000000 0.500000
vt 0.000000 0.000000
vt 1.000000 0.000000
vt 1.000000 0.500000
vt 0.000000 0.500000
vt 1.000000 1.000000
vt 0.000000 1.000000
vt 1.000000 0.500000
vt 0.000000 1.000000
vt 1.000000 0.500000
vt 1.000000 1.000000
vt 0.000000 1.000000
vt 1.000000 1.000000
vt 1.000000 0.000000
vt 1.000000 0.000000
vt 0.026073 0.645985
vt 1.857196 0.592840
vt 0.479088 1.518130
vt -1.395221 1.487614
vt 0.000000 0.500000
vt 0.000000 0.500000
vt 1.963353 0.521563
vt 0.479088 1.518130
vt -1.515972 1.485648
vt 0.000000 0.000000
vt 1.000000 0.000000
vt 1.000000 1.000000
vt 0.000000 1.000000
vt 0.000000 0.000000
vt 1.000000 0.000000
vt 1.000000 1.000000
vt 0.000000 1.000000
vt 0.000000 0.000000
vt 1.000000 0.000000
vt 1.000000 1.000000
vt 0.500000 0.000000
vt 1.000000 0.000000
vt 0.000000 1.000000
vt 0.000000 0.000000
vt 0.500000 0.000000
vt 1.000000 0.000000
vt 1.000000 1.000000
vt 0.000000 1.000000
vt 0.000000 0.000000
vt 0.000000 0.000000
vt 1.000000 0.000000
vt 1.000000 1.000000
vt 0.000000 1.000000
vt 0.000000 0.000000
vt 1.000000 0.000000
vt 1.000000 1.000000
vt 0.000000 1.000000
vt 0.000000 0.000000
vt 1.000000 0.000000
vt 1.000000 1.000000
vt 0.500000 0.000000
vt 1.000000 0.000000
vt 0.000000 1.000000
vt 0.000000 0.000000
vt 0.500000 0.000000
vt 1.000000 0.000000
vt 1.000000 1.000000
vt 0.000000 1.000000
vt 0.000000 0.000000
vt 0.000000 0.000000
vt 1.000000 0.000000
vt 1.000000 1.000000
vt 0.000000 1.000000
vt 0.000000 0.000000
vt 1.000000 0.000000
vt 1.000000 1.000000
vt 0.000000 1.000000
vt 0.000000 0.000000
vt 1.000000 0.000000
vt 1.000000 1.000000
vt 0.500000 0.000000
vt 1.000000 0.000000
vt 0.000000 1.000000
vt 0.000000 0.000000
vt 0.500000 0.000000
vt 1.000000 0.000000
vt 1.000000 1.000000
vt 0.000000 1.000000
vt 0.000000 0.000000
vt 0.000000 0.000000
vt 1.000000 0.000000
vt 1.000000 1.000000
vt 0.000000 1.000000
vt 0.000000 0.000000
vt 1.000000 0.000000
vt 1.000000 1.000000
vt 0.000000 1.000000
vt 0.000000 0.000000
vt 1.000000 0.000000
vt 1.000000 1.000000
vt 0.500000 0.000000
vt 1.000000 0.000000
vt 0.000000 1.000000
vt 0.000000 0.000000
vt 0.500000 0.000000
vt 1.000000 0.000000
vt 1.000000 1.000000
vt 0.000000 1.000000
vt 0.000000 0.000000
vn -0.0788 0.9040 0.4201
vn 0.0942 0.9399 0.3282
vn 0.1184 0.9656 0.2317
vn -0.0075 0.9575 0.2884
vn -0.4157 0.1700 0.8935
vn -0.2637 0.2049 0.9426
vn -0.2231 0.1897 0.9561
vn -0.2999 0.1794 0.9370
vn 0.6472 0.5410 0.5371
vn 0.8414 0.5403 0.0120
vn 0.8918 0.4501 0.0465
vn 0.6688 0.4538 0.5889
vn -0.0145 0.3807 -0.9246
vn 0.0112 0.3189 -0.9477
vn 0.0121 0.3169 -0.9484
vn -0.9008 0.3196 -0.2940
vn -0.9654 0.2555 -0.0522
vn -0.9423 0.3348 -0.0007
vn -0.8808 0.3692 -0.2966
vn 0.6688 0.4538 0.5888
vn 0.7354 0.3778 0.5625
vn 0.6107 0.3730 0.6984
vn 0.4093 0.3792 0.8299
vn 0.8841 0.4334 -0.1747
vn 0.9326 0.2873 -0.2184
vn 0.9408 0.3347 0.0540
vn 0.8918 0.4501 0.0464
vn 0.0112 0.3190 -0.9477
vn 0.0509 0.2204 -0.9741
vn -0.9423 0.3348 -0.0008
vn -0.9104 0.4106 0.0505
vn -0.8500 0.4168 -0.3220
vn -0.8808 0.3691 -0.2966
vn -0.0785 0.9009 0.4269
vn 0.0778 0.8864 0.4563
vn -0.0556 0.9909 0.1229
vn -0.2047 0.9641 0.1691
vn -0.2310 0.9138 0.3340
vn 0.7082 0.6566 0.2594
vn 0.7505 0.6208 0.2266
vn 0.7892 0.5830 0.1933
vn 0.3769 0.4692 -0.7986
vn 0.3644 0.6297 -0.6861
vn 0.3725 0.5519 -0.7461
vn -0.7486 0.5094 -0.4244
vn -0.7982 0.0476 0.6005
vn 0.0356 0.9983 0.0463
vn -0.5859 0.3591 -0.7264
vn -0.5635 0.5357 -0.6289
vn -0.5605 0.5497 -0.6194
vn -0.6126 0.4743 0.6322
vn -0.3621 0.4664 0.8070
vn -0.3844 0.5146 0.7664
vn -0.5863 0.5524 0.5925
vn 0.6480 0.3646 0.6687
vn 0.6458 0.4898 0.5857
vn 0.6451 0.4978 0.5796
vn 0.4837 0.3387 -0.8071
vn 0.4824 0.3239 -0.8139
vn 0.4828 0.3293 -0.8115
vn -0.4819 0.7661 -0.4253
vn -0.4288 0.6157 0.6611
vn -0.5513 0.7145 0.4307
vn 0.6192 0.6426 0.4512
vn 0.6451 0.4978 0.5797
vn 0.4805 0.3051 -0.8222
vn 0.4828 0.3292 -0.8115
vn -0.1158 0.9886 -0.0961
vn 0.1511 0.9813 -0.1193
vn -0.0322 0.9940 -0.1042
vn -0.3850 0.4701 0.7942
vn 0.9620 0.1883 0.1976
vn 0.9606 0.2063 0.1865
vn 0.9489 0.2847 0.1363
vn 0.7201 0.2658 -0.6410
vn 0.5346 0.1963 -0.8220
vn 0.6569 0.2421 -0.7140
vn -0.9425 0.2987 -0.1500
vn 0.4065 0.9083 0.0987
vn -0.4177 0.4818 0.7703
vn 0.7445 0.4250 -0.5149
vn 0.8242 0.4468 -0.3480
vn 0.7658 0.4315 -0.4767
vn 0.6804 0.4034 -0.6119
vn -0.9147 -0.0413 -0.4021
vn 0.0117 0.9998 -0.0187
vn -0.1790 0.9622 0.2053
vn -0.0702 0.9739 0.2159
vn 0.0522 0.9943 0.0927
vn -0.6590 0.4253 -0.6204
vn -0.6836 0.4992 0.5325
vn 0.5289 0.3946 0.7513
vn 0.4671 0.4637 -0.7529
vn -0.4491 0.8212 -0.3520
vn -0.0941 0.9464 0.3088
vn -0.0703 0.9739 0.2159
vn -0.2789 0.9055 0.3197
vn 0.0891 0.9725 0.2151
vn -0.0941 0.9465 0.3088
vn 0.1064 0.9526 0.2850
vn 0.0247 0.9989 -0.0395
vn 0.2485 0.9587 -0.1381
vn 0.2345 0.9003 -0.3668
vn 0.2347 0.9013 -0.3640
vn 0.1956 0.4742 0.8584
vn 0.2189 0.5577 0.8007
vn 0.1856 0.4394 0.8789
vn 0.9338 0.3336 -0.1294
vn 0.2345 0.9003 -0.3667
vn 0.2133 0.8152 -0.5385
vn -0.9587 0.2384 0.1550
vn 0.9529 0.2836 -0.1072
vn 0.9108 0.4025 -0.0920
vn 0.9223 0.3743 -0.0959
vn 0.9223 0.3743 -0.0958
vn 0.9108 0.4024 -0.0920
vn 0.8488 0.5236 -0.0740
vn -0.9189 0.3656 0.1486
vn -0.8798 0.4002 0.2565
vn -0.7729 0.5787 0.2603
vn -0.8151 0.5639 0.1328
vn -0.8151 0.5640 0.1328
vn -0.6042 0.7905 0.0999
vn 0.3567 0.5930 0.7219
vn 0.3658 0.5630 0.7411
vn 0.3486 0.6177 0.7049
vn -0.1764 0.6354 -0.7518
vn -0.1798 0.6275 -0.7576
vn -0.2337 0.4837 -0.8435
vn 0.3567 0.5929 0.7219
vn 0.4301 0.2047 0.8793
vn 0.5868 0.7357 0.3382
vn 0.3242 0.8106 -0.4877
vn -0.2616 0.9018 -0.3439
vn -0.4412 0.8874 0.1334
vn -0.2047 0.9641 0.1690
vn -0.2858 0.8840 0.3699
vn -0.1729 0.8632 -0.4743
vn -0.7861 0.3602 -0.5023
vn -0.9008 0.3195 -0.2940
vn -0.7705 0.3695 -0.5194
vn -0.7387 0.3869 -0.5519
vn 0.2944 0.4301 0.8534
vn -0.1740 0.1711 0.9698
vn 0.8213 0.3867 0.4195
vn -0.1289 0.8703 0.4754
vn 0.0398 0.8526 0.5210
vn -0.3184 0.8573 0.4045
vn 0.8414 0.5404 0.0120
vn 0.8343 0.5333 -0.1398
vn 0.8213 0.3867 0.4194
vn 0.8918 0.4500 0.0464
vn -0.6117 0.1129 0.7830
vn -0.2999 0.1794 0.9369
vn -0.1732 0.8670 0.4672
vn 0.0140 0.6888 0.7249
vn 0.0394 0.7523 0.6576
vn 0.2966 0.3615 0.8839
vn 0.5057 0.2715 0.8188
vn 0.1816 0.5260 0.8309
vn 0.6855 0.5137 0.5159
vn 0.2047 0.6914 0.6929
vn 0.8143 0.3012 -0.4962
vn 0.7201 0.2658 -0.6409
vn -0.3354 0.9394 -0.0710
vn -0.5659 0.2520 -0.7850
vn 0.1625 0.4060 0.8993
vn 0.1815 0.5260 0.8309
vn 0.0140 0.6888 0.7248
vn 0.0139 0.6888 0.7248
vn 0.1410 0.6714 0.7276
vn 0.2677 0.7435 0.6128
vn 0.2189 0.5576 0.8007
vn -0.5008 0.8607 0.0922
vn 0.9606 0.2063 0.1864
vn 0.9023 0.4297 0.0354
vn -0.0062 0.2597 -0.9657
vn -0.2586 0.1823 0.9486
vn 0.7894 0.5790 0.2038
vn 0.0217 0.9998 0.0036
vn -0.2583 0.9622 -0.0865
vn -0.2263 0.9739 0.0181
vn -0.0655 0.9943 0.0838
vn 0.3197 0.4253 -0.8467
vn -0.7542 0.4992 -0.4266
vn -0.4905 0.3946 0.7770
vn 0.8745 0.4637 0.1420
vn 0.1525 0.8212 -0.5498
vn -0.3213 0.9464 0.0317
vn -0.4023 0.9055 -0.1347
vn -0.1643 0.9725 0.1649
vn -0.3213 0.9465 0.0317
vn -0.2223 0.9526 0.2077
vn 0.0459 0.9989 0.0076
vn -0.1644 0.9725 0.1649
vn -0.9752 0.1823 0.1256
vn 0.1151 0.5790 0.8072
vn 0.0038 0.9989 0.0466
vn -0.1815 0.9650 0.1894
vn -0.1793 0.9657 0.1876
vn 0.6817 0.4108 -0.6054
vn 0.6455 0.5033 -0.5745
vn 0.6941 0.3725 -0.6160
vn -0.5449 0.5998 -0.5860
vn -0.1815 0.9650 0.1893
vn -0.3256 0.8973 0.2982
vn 0.7298 -0.0657 0.6805
vn 0.5205 0.7152 -0.4664
vn 0.5841 0.6648 0.4657
vn -0.0000 1.0000 -0.0000
vn 0.7832 0.3603 0.5068
vn -0.2594 0.5334 0.8051
vn 0.2866 0.6007 -0.7463
vn -0.6055 0.6630 -0.4403
vn -0.8790 0.3705 -0.3000
vn 0.1474 0.6254 -0.7663
vn -0.1858 0.6885 0.7011
vn 0.6840 0.6781 0.2689
vn 0.2483 0.3705 -0.8950
vn 0.7735 0.6254 0.1025
vn -0.7107 0.6885 -0.1447
vn -0.2287 0.6781 0.6985
g Rocks01_Mesh.002_YellowDark
usemtl YellowDark
s 1
f 89/1/1 92/2/2 94/3/3 7/4/3 84/5/3 6/6/4
f 1/7/5 86/8/6 88/9/7 9/10/8
f 2/11/9 93/12/10 95/13/11 8/14/12
f 4/15/13 83/16/13 85/17/14 10/18/15
f 3/19/16 96/20/17 9/21/18 11/22/19
f 8/23/20 91/24/21 87/25/22 88/9/23
f 10/26/24 7/4/25 94/27/26 95/13/27
f 85/17/28 84/28/29 7/29/29 10/18/15
f 9/21/30 5/30/31 90/31/32 11/22/33
f 75/32/34 72/33/35 76/34/35 82/35/36 77/36/37 78/37/38
f 13/38/39 72/33/40 73/39/41 17/40/41
f 79/41/42 14/42/43 13/38/44 17/40/42 18/43/42
f 15/44/45 81/45/45 80/46/45 74/47/45 19/48/45
f 12/49/46 15/44/46 19/48/46 16/50/46
f 24/51/47 25/52/47 120/53/47 26/54/47 68/55/47 27/56/47
f 20/57/48 70/58/48 71/59/49 29/60/50
f 23/61/51 22/62/52 30/63/53 28/64/54
f 22/65/55 67/66/55 69/67/56 30/68/57
f 21/69/58 20/70/58 29/71/59 31/72/60
f 71/59/49 25/73/61 24/74/61 29/60/50
f 30/63/53 26/54/62 120/75/63 28/64/54
f 69/67/56 68/76/64 26/77/64 30/68/65
f 29/71/59 24/78/66 27/79/66 31/72/67
f 98/80/68 109/81/69 36/82/69 104/83/69 37/84/69 114/85/69 106/86/70
f 32/87/71 108/88/71 110/89/71 107/90/71
f 35/91/72 103/92/72 104/93/73 112/94/74
f 34/95/75 113/96/76 114/97/76 37/98/77
f 33/99/78 32/100/78 107/101/78 38/102/78
f 39/103/79 40/104/79 101/105/79 99/106/79 41/107/79 42/108/79
f 40/104/80 39/103/80 43/109/80 102/110/80
f 41/107/81 99/106/82 100/111/82 45/112/83
f 42/108/84 41/107/81 45/112/83 46/113/84
f 39/103/85 42/108/85 46/113/85 43/109/85
f 51/114/86 52/115/87 53/116/88 54/117/89
f 47/118/90 50/119/90 55/120/90 56/121/90
f 50/122/91 115/123/91 116/124/91 55/125/91
f 49/126/92 117/127/92 118/128/92 57/129/92
f 48/130/93 47/131/93 56/132/93 58/133/93
f 55/120/94 52/134/94 51/135/94 56/121/94
f 57/136/95 53/116/96 52/137/87 55/125/97 116/124/97
f 58/138/98 54/139/89 53/140/88 57/129/99 118/128/100
f 56/132/101 51/141/86 54/117/89 58/133/98
f 59/142/102 60/143/102 61/144/103 62/145/104
f 60/143/105 111/146/106 63/147/107 64/148/107
f 61/144/108 60/143/108 64/148/108 65/149/108
f 62/145/104 61/144/109 65/149/110 66/150/110
f 111/146/111 62/145/111 66/150/111 63/147/111
f 67/151/112 21/69/112 31/72/113 69/152/114
f 69/153/115 31/72/116 27/79/117 68/154/117
f 70/155/118 119/156/119 121/157/120 71/158/121
f 71/159/122 121/157/120 120/75/63 25/160/123
f 72/33/124 12/49/125 16/50/126 73/39/126
f 80/46/127 79/41/128 18/43/129 74/47/129
f 12/49/125 72/33/130 75/32/131
f 72/33/40 13/38/39 76/34/132
f 13/38/44 14/42/43 82/35/133 76/34/133
f 81/45/134 15/44/135 78/37/38 77/36/136
f 15/44/135 12/49/137 75/32/34 78/37/38
f 14/42/138 79/41/128 80/46/127 81/45/134
f 14/42/138 81/45/134 77/36/136 82/35/36
f 83/161/139 3/19/140 11/22/19 85/162/141
f 85/163/141 11/22/33 90/31/32 6/164/142 84/165/142
f 86/8/143 2/166/9 8/23/12 88/9/23
f 87/25/144 5/167/144 9/10/8 88/9/7
f 87/25/22 91/24/21 92/168/145
f 89/169/1 5/167/146 87/25/147 92/170/2
f 6/171/4 90/31/148 5/30/146 89/172/1
f 93/12/149 4/173/150 10/26/24 95/13/27
f 94/27/26 92/174/151 91/175/21 8/14/12 95/13/152
f 96/20/153 1/176/5 9/21/154
f 98/177/155 107/90/155 110/89/156 109/178/157
f 97/179/158 35/91/159 112/94/160
f 99/106/161 101/105/161 44/180/161 100/111/161
f 102/110/162 44/180/162 101/105/162 40/104/162
f 103/181/163 34/95/164 37/98/77 104/182/163
f 106/183/70 38/102/165 107/101/165 98/184/68
f 105/185/166 33/99/166 38/102/166 106/186/166
f 108/88/167 97/187/158 112/188/168 110/89/169
f 110/89/170 112/188/168 36/189/171 109/178/157
f 59/142/172 111/146/173 60/143/105
f 62/145/174 111/146/174 59/142/174
f 104/93/175 36/190/176 112/94/74
f 113/96/177 105/191/177 106/192/177 114/97/177
f 115/123/178 49/193/178 57/136/178 116/124/178
f 117/127/179 48/194/179 58/138/179 118/128/179
f 28/64/54 120/75/63 121/157/120
f 119/156/119 23/61/51 28/64/54 121/157/120
f 122/195/180 123/196/181 124/197/182 125/198/183
f 126/199/184 127/200/184 128/201/184 129/202/184
f 127/203/185 130/204/185 131/205/185 128/206/185
f 132/207/186 133/208/186 134/209/186 135/210/186
f 136/211/187 126/212/187 129/213/187 137/214/187
f 128/201/188 123/215/188 122/216/188 129/202/188
f 135/217/189 124/197/182 123/218/181 128/206/190 131/205/190
f 137/219/191 125/220/183 124/221/182 135/210/192 134/209/193
f 129/213/194 122/222/180 125/198/183 137/214/195
f 130/204/196 132/223/196 135/217/196 131/205/196
f 133/208/197 136/224/197 137/219/197 134/209/197
f 138/225/198 139/226/198 140/227/199 141/228/200
f 139/226/201 142/229/202 143/230/203 144/231/203
f 140/227/204 139/226/204 144/231/204 145/232/204
f 141/228/200 140/227/205 145/232/206 146/233/206
f 142/229/207 141/228/207 146/233/207 143/230/207
f 138/225/208 142/229/202 139/226/201
f 141/228/209 142/229/209 138/225/209
f 147/234/210 148/235/210 149/236/210 150/237/210
f 151/238/211 152/239/211 148/240/211 147/241/211
f 156/242/212 151/243/212 147/244/212 150/237/212
f 153/245/213 154/246/213 149/236/213 148/247/213 152/248/213
f 155/249/214 156/250/214 150/251/214 149/252/214 154/253/214
f 157/254/210 158/255/210 159/256/210 160/257/210
f 161/258/215 162/259/215 158/260/215 157/261/215
f 163/262/216 161/263/216 157/264/216 160/257/216
f 164/265/217 165/266/217 159/256/217 158/267/217 162/268/217
f 166/269/218 163/270/218 160/271/218 159/272/218 165/273/218
f 167/274/210 168/275/210 169/276/210 170/277/210
f 171/278/215 172/279/215 168/280/215 167/281/215
f 173/282/216 171/283/216 167/284/216 170/277/216
f 174/285/217 175/286/217 169/276/217 168/287/217 172/288/217
f 176/289/218 173/290/218 170/291/218 169/292/218 175/293/218
f 177/294/210 178/295/210 179/296/210 180/297/210
f 181/298/219 182/299/219 178/300/219 177/301/219
f 183/302/220 181/303/220 177/304/220 180/297/220
f 184/305/221 185/306/221 179/296/221 178/307/221 182/308/221
f 186/309/222 183/310/222 180/311/222 179/312/222 185/313/222
