# Blender v2.90.1 OBJ File: ''
# www.blender.org
mtllib Ruinas.mtl
o Ruins01_Mesh.005
v 2.148700 0.973122 1.604210
v 1.977468 0.973122 1.612698
v 1.977468 0.957805 2.252667
v 2.148700 0.957805 2.244179
v 2.148700 0.925190 1.476512
v 1.977468 0.871738 1.526785
v 2.148700 0.846280 1.468266
v 1.977468 0.779041 1.487448
v 2.148700 0.836570 1.403723
v 1.977468 0.754775 1.422905
v 2.148700 0.734793 1.323639
v 1.977468 0.718211 1.332127
v 2.148700 0.728194 1.197078
v 1.977468 0.626859 1.205566
v 2.148700 0.667448 1.159652
v 1.977468 0.566113 1.168139
v 2.148700 0.647010 0.960890
v 1.977468 0.615871 0.969378
v 2.148700 0.567254 0.924750
v 1.977468 0.533580 0.927077
v 2.148700 0.531356 0.837517
v 1.977468 0.502752 0.852166
v 2.148700 0.386109 0.784967
v 1.977468 0.386109 0.793455
v 2.148700 0.235141 0.421822
v 1.977468 0.235141 0.489880
v 2.148700 0.170096 0.391728
v 1.977468 0.170096 0.459786
v 2.148700 -0.025939 0.359331
v 1.977468 -0.025939 0.427389
v 1.977468 0.995434 2.293518
v 2.148700 1.034226 2.285030
v 1.977468 0.998825 2.339516
v 2.148700 1.037617 2.331028
v 1.977468 1.446338 2.463689
v 2.148700 1.446339 2.455201
v 1.977468 1.455216 2.542070
v 2.148700 1.487696 2.533582
v 1.977468 1.525114 2.572261
v 2.148700 1.557594 2.563774
v 1.977468 1.573609 2.711027
v 2.148700 1.573609 2.702540
v 1.882054 1.453429 2.572261
v 1.882054 1.501923 2.711027
v 1.877102 1.373539 2.572261
v 1.877102 1.389553 2.711027
v 1.681771 1.298122 2.572261
v 1.684827 1.348977 2.711027
v 1.633180 1.260595 2.572261
v 1.630125 1.274250 2.711027
v 1.609845 1.126157 2.572261
v 1.609845 1.142172 2.711027
v 1.314820 0.797208 2.572261
v 1.314820 0.760835 2.711027
v 1.282440 0.706238 2.711027
v 1.199029 0.789109 2.572261
v 1.199029 0.752736 2.711027
v 1.120428 0.656613 2.572261
v 1.120428 0.749981 2.711027
v 1.055170 0.603089 2.572261
v 1.055170 0.646330 2.711027
v 0.923760 0.336675 2.572261
v 0.923760 0.404979 2.711027
v 0.072509 0.152365 2.572261
v 0.068848 0.200762 2.711027
v -0.216871 0.116406 2.572261
v -0.220532 0.164802 2.711027
v -0.310475 -0.025939 2.572261
v -0.310475 -0.025939 2.711027
v -2.033150 0.686504 -0.753997
v -2.148700 0.686504 -0.746963
v -2.148700 0.686504 -0.195183
v -2.033150 0.686504 -0.202217
v -2.033150 0.983452 -0.753997
v -2.148700 0.983452 -0.746963
v -2.148700 0.798147 -0.195183
v -2.033150 0.798147 -0.202217
v -2.148700 0.836130 -0.162107
v -2.033150 0.836130 -0.169140
v -2.148700 0.827362 -0.107716
v -2.033150 0.827362 -0.114749
v -2.148700 0.847640 -0.066007
v -2.033150 0.847640 -0.073040
v -2.148700 0.800040 -0.013921
v -2.033150 0.771497 -0.034722
v -2.148700 0.702640 0.007670
v -2.033150 0.674097 -0.013132
v -2.148700 0.627471 0.109192
v -2.033150 0.598928 0.088390
v -2.148700 0.557096 0.282092
v -2.033150 0.528553 0.261290
v -2.148700 0.478009 0.364540
v -2.033150 0.449467 0.343738
v -2.148700 -0.025939 0.364540
v -2.033150 -0.025939 0.357506
v -2.033150 1.022172 -0.793902
v -2.148700 1.022172 -0.786869
v -2.033150 0.981203 -0.865837
v -2.148700 0.981203 -0.858803
v -2.033150 0.984384 -1.007445
v -2.148700 0.984384 -1.000411
v -2.033150 0.781380 -1.236058
v -2.148700 0.781380 -1.229025
v -2.033150 0.865571 -1.318049
v -2.148700 0.865571 -1.311015
v -2.033150 0.814737 -1.425931
v -2.148700 0.802111 -1.418897
v -2.033150 0.781807 -1.530417
v -2.148700 0.722687 -1.523383
v -2.033150 0.669416 -1.596925
v -2.148700 0.669416 -1.589892
v -2.033150 0.547545 -1.799202
v -2.148700 0.547545 -1.792168
v -2.033150 0.248755 -1.886641
v -2.148700 0.248755 -1.879607
v -2.033150 0.315046 -2.000946
v -2.148700 0.315046 -1.993912
v -2.033150 0.264434 -2.093479
v -2.148700 0.264434 -2.086445
v -2.033150 -0.025939 -2.159261
v -2.148700 -0.025939 -2.152226
v -2.033150 0.723453 -1.713948
v -2.148700 0.723453 -1.706914
v 2.138134 0.627472 -2.575131
v 1.984663 0.627472 -2.568097
v 1.984663 0.557096 -2.395197
v 1.984663 0.478010 -2.312749
v 2.138134 0.478010 -2.319783
v 1.984663 -0.025939 -2.151093
v 2.138134 -0.025939 -2.158126
v 2.138134 0.627472 -2.711026
v 1.984663 0.627472 -2.703992
v 1.923500 0.529552 -2.568098
v 1.923500 0.586792 -2.703992
v 1.908998 0.511102 -2.703992
v 1.822888 0.456790 -2.568097
v 1.835890 0.510645 -2.703992
v 1.757333 0.413534 -2.568097
v 1.744331 0.450230 -2.703992
v 1.742044 0.357319 -2.703992
v 1.617308 0.291278 -2.568097
v 1.617308 0.291278 -2.703992
v 1.488968 -0.025939 -2.568097
v 1.488968 -0.025939 -2.703992
v 2.148700 -0.025939 2.563774
v 2.148700 -0.025939 1.578343
v 1.977468 -0.025939 2.252667
v 0.923760 -0.025939 2.711027
v 0.068848 -0.025939 2.572261
v 0.068848 -0.025939 2.711027
v -2.033150 -0.025939 -0.753997
v -2.148700 -0.025939 -0.746964
v -2.148700 -0.025939 -0.195183
v -2.033150 -0.025939 -0.202217
v 0.499965 0.322872 2.572261
v 0.496304 0.371269 2.711027
v 0.496304 -0.025939 2.572261
v 0.496304 -0.025939 2.711027
v 1.977468 -0.025939 1.586831
v 1.977468 -0.025939 1.007110
v 2.148700 -0.025939 0.998622
v 1.977468 -0.025939 2.711027
v 2.148700 -0.025939 2.702540
v 1.120428 -0.025940 2.711027
v 0.994209 0.272200 2.711027
v 0.989465 -0.025940 2.572261
v 0.994209 0.256185 2.572261
v 1.977468 -0.025940 2.572261
v 1.609845 -0.025942 2.572261
v 1.217624 -0.025941 2.572261
v 1.282440 0.742611 2.572261
v 1.977468 1.369863 2.542070
v 1.977468 1.371133 2.572261
v 2.138134 0.557096 -2.402231
v 2.138134 -0.025939 -2.711026
v 1.742044 0.357319 -2.568097
v 1.984663 -0.025940 -2.568097
v 1.908998 0.477792 -2.568097
v 1.136837 0.129832 2.383182
v 1.150094 -0.023195 2.381534
v 1.262631 -0.026019 2.047634
v 1.214248 0.126184 2.089461
v 1.236606 -0.028982 1.989005
v 1.188224 0.123221 2.030832
v 1.123798 -0.038718 1.851627
v 1.075415 0.113485 1.893454
v 0.733594 0.105472 2.284463
v 0.746852 -0.047554 2.282815
v 1.464308 0.008233 1.313423
v 1.635540 0.109568 1.304936
v 1.635540 0.089130 1.106174
v 1.417843 0.078781 1.114662
v 1.132747 0.008233 3.430244
v 1.183336 0.109567 3.266435
v 0.996561 0.089130 3.198455
v 0.945972 0.057991 3.362264
v 2.237983 0.008233 3.267054
v 2.137069 0.109567 3.115453
v 1.910004 0.089130 3.199453
v 2.010917 0.057991 3.351055
v 1.242192 0.016455 -2.480231
v 1.164917 0.106327 -2.595009
v 1.009860 0.092371 -2.537648
v 1.072980 0.049769 -2.423991
v 1.403951 -0.044870 1.313423
v 1.635540 -0.042511 1.304936
v 1.635540 -0.042987 1.106174
v 1.357486 -0.022922 1.114662
v 1.169447 -0.044870 3.430244
v 1.220036 -0.042511 3.266435
v 0.962280 -0.042987 3.198455
v 0.911691 -0.043712 3.362264
v 2.237983 -0.044870 3.267054
v 2.137069 -0.042511 3.115453
v 1.876843 -0.042987 3.214889
v 1.977756 -0.043712 3.366491
v 1.271119 -0.044870 -2.494111
v 1.183074 -0.042511 -2.662627
v 0.956009 -0.042987 -2.578627
v 1.044053 -0.043712 -2.410110
vt 1.000000 1.000000
vt 1.000000 0.000000
vt 1.000000 0.000000
vt 1.000000 1.000000
vt 1.000000 1.000000
vt 1.000000 0.000000
vt 1.000000 1.000000
vt 1.000000 0.000000
vt 1.000000 1.000000
vt 1.000000 0.000000
vt 1.000000 1.000000
vt 1.000000 0.000000
vt 1.000000 1.000000
vt 1.000000 0.000000
vt 1.000000 1.000000
vt 1.000000 0.000000
vt 1.000000 1.000000
vt 1.000000 0.000000
vt 1.000000 1.000000
vt 1.000000 0.000000
vt 1.000000 1.000000
vt 1.000000 0.000000
vt 1.000000 1.000000
vt 1.000000 0.000000
vt 1.000000 1.000000
vt 1.000000 0.000000
vt 1.000000 1.000000
vt 1.000000 0.000000
vt 1.000000 1.000000
vt 1.000000 0.000000
vt 1.000000 0.000000
vt 1.000000 1.000000
vt 1.000000 0.000000
vt 1.000000 1.000000
vt 1.000000 0.000000
vt 1.000000 1.000000
vt 1.000000 0.000000
vt 1.000000 1.000000
vt 1.000000 0.000000
vt 1.000000 1.000000
vt 1.000000 0.000000
vt 1.000000 1.000000
vt 1.000000 0.000000
vt 1.000000 0.000000
vt 1.000000 0.000000
vt 1.000000 0.000000
vt 1.000000 0.000000
vt 1.000000 0.000000
vt 1.000000 0.000000
vt 1.000000 0.000000
vt 1.000000 0.000000
vt 1.000000 0.000000
vt 1.000000 0.000000
vt 1.000000 0.000000
vt 1.000000 0.000000
vt 1.000000 0.000000
vt 1.000000 0.000000
vt 1.000000 0.000000
vt 1.000000 0.000000
vt 1.000000 0.000000
vt 1.000000 0.000000
vt 1.000000 0.000000
vt 1.000000 0.000000
vt 1.000000 0.000000
vt 1.000000 0.000000
vt 1.000000 0.000000
vt 1.000000 0.000000
vt 1.000000 0.000000
vt 1.000000 0.000000
vt 1.000000 0.000000
vt 1.000000 0.000000
vt 1.000000 0.000000
vt 1.000000 0.000000
vt 1.000000 0.000000
vt 1.000000 1.000000
vt 1.000000 0.000000
vt 1.000000 0.000000
vt 1.000000 1.000000
vt 1.000000 1.000000
vt 1.000000 0.000000
vt 1.000000 0.000000
vt 1.000000 1.000000
vt 1.000000 0.000000
vt 1.000000 1.000000
vt 1.000000 0.000000
vt 1.000000 1.000000
vt 1.000000 0.000000
vt 1.000000 1.000000
vt 1.000000 0.000000
vt 1.000000 1.000000
vt 1.000000 0.000000
vt 1.000000 1.000000
vt 1.000000 0.000000
vt 1.000000 1.000000
vt 1.000000 0.000000
vt 1.000000 1.000000
vt 1.000000 0.000000
vt 1.000000 1.000000
vt 1.000000 0.000000
vt 1.000000 1.000000
vt 1.000000 1.000000
vt 1.000000 0.000000
vt 1.000000 1.000000
vt 1.000000 0.000000
vt 1.000000 1.000000
vt 1.000000 0.000000
vt 1.000000 1.000000
vt 1.000000 0.000000
vt 1.000000 1.000000
vt 1.000000 0.000000
vt 1.000000 1.000000
vt 1.000000 0.000000
vt 1.000000 1.000000
vt 1.000000 0.000000
vt 1.000000 1.000000
vt 1.000000 0.000000
vt 1.000000 1.000000
vt 1.000000 0.000000
vt 1.000000 0.000000
vt 1.000000 1.000000
vt 1.000000 1.000000
vt 1.000000 0.000000
vt 1.000000 1.000000
vt 1.000000 0.000000
vt 1.000000 1.000000
vt 1.000000 0.000000
vt 1.000000 1.000000
vt 1.000000 0.000000
vt 1.000000 1.000000
vt 1.000000 0.000000
vt 1.000000 0.000000
vt 1.000000 1.000000
vt 1.000000 0.000000
vt 1.000000 1.000000
vt 1.000000 0.000000
vt 1.000000 1.000000
vt 1.000000 1.000000
vt 1.000000 0.000000
vt 1.000000 0.000000
vt 1.000000 0.000000
vt 1.000000 0.000000
vt 1.000000 0.000000
vt 1.000000 0.000000
vt 1.000000 0.000000
vt 1.000000 0.000000
vt 1.000000 0.000000
vt 1.000000 0.000000
vt 1.000000 0.000000
vt 1.000000 0.000000
vt 1.000000 0.000000
vt 1.000000 0.000000
vt 1.000000 0.000000
vt 1.000000 1.000000
vt 1.000000 1.000000
vt 1.000000 1.000000
vt 1.000000 0.000000
vt 1.000000 0.000000
vt 1.000000 0.000000
vt 1.000000 1.000000
vt 1.000000 0.000000
vt 1.000000 0.000000
vt 1.000000 0.000000
vt 1.000000 0.000000
vt 1.000000 0.000000
vt 1.000000 0.000000
vt 1.000000 1.000000
vt 1.000000 1.000000
vt 1.000000 0.000000
vt 1.000000 0.000000
vt 1.000000 0.000000
vt 1.000000 1.000000
vt 1.000000 0.000000
vt 1.000000 0.000000
vt 1.000000 0.500000
vt 1.000000 0.000000
vt 1.000000 0.000000
vt 1.000000 0.000000
vt 1.000000 0.000000
vt 1.000000 0.000000
vt 1.000000 0.000000
vt 1.000000 1.000000
vt 1.000000 0.000000
vt 1.000000 1.000000
vt 1.000000 1.000000
vt 1.000000 0.000000
vt 1.000000 0.000000
vt 1.000000 0.000000
vt 1.000000 0.000000
vt 1.000000 1.000000
vt 1.000000 1.000000
vt 1.000000 1.000000
vt 1.000000 1.000000
vt 1.000000 1.000000
vt 1.000000 0.000000
vt 1.000000 0.000000
vt 1.000000 0.000000
vt 1.000000 0.000000
vt 1.000000 1.000000
vt 1.000000 1.000000
vt 1.000000 1.000000
vt 1.000000 1.000000
vt 1.000000 0.000000
vt 1.000000 0.000000
vt 1.000000 0.000000
vt 1.000000 0.000000
vt 1.000000 0.000000
vt 1.000000 0.000000
vt 1.000000 0.000000
vt 1.000000 0.000000
vt 1.000000 0.000000
vt 1.000000 1.000000
vt 1.000000 1.000000
vt 1.000000 1.000000
vt 1.000000 1.000000
vt 1.000000 1.000000
vt 1.000000 1.000000
vt 1.000000 1.000000
vt 1.000000 1.000000
vt 1.000000 1.000000
vt 1.000000 0.000000
vt 1.000000 1.000000
vt 1.000000 1.000000
vt 1.000000 0.000000
vt 1.000000 1.000000
vt 1.000000 0.000000
vt 1.000000 1.000000
vt 1.000000 0.000000
vt 1.000000 0.000000
vt 1.000000 1.000000
vt 1.000000 0.000000
vt 1.000000 0.000000
vt 1.000000 1.000000
vt 1.000000 0.000000
vt 1.000000 1.000000
vt 1.000000 1.000000
vt 1.000000 0.000000
vt 1.000000 0.000000
vt 1.000000 1.000000
vt 1.000000 1.000000
vt 1.000000 0.000000
vt 1.000000 0.000000
vt 1.000000 1.000000
vt 1.000000 1.000000
vt 1.000000 0.000000
vt 1.000000 0.000000
vt 1.000000 1.000000
vt 1.000000 1.000000
vt 1.000000 0.000000
vt 1.000000 0.000000
vt 1.000000 1.000000
vt 1.000000 1.000000
vt 1.000000 0.000000
vt 1.000000 0.000000
vt 1.000000 1.000000
vt 1.000000 1.000000
vt 1.000000 0.000000
vt 1.000000 0.000000
vt 1.000000 1.000000
vt 1.000000 1.000000
vt 1.000000 0.000000
vt 1.000000 0.000000
vt 1.000000 1.000000
vt 1.000000 1.000000
vt 1.000000 0.000000
vn 0.0012 0.9997 0.0239
vn -0.2207 0.7994 -0.5588
vn -0.2782 0.2567 -0.9256
vn -0.4099 0.8821 -0.2322
vn -0.2644 0.7495 -0.6069
vn -0.3211 0.8832 -0.3418
vn -0.3326 0.4947 -0.8029
vn -0.3570 0.9316 0.0687
vn -0.1102 0.4330 -0.8946
vn -0.1838 0.9090 -0.3741
vn -0.0944 0.3893 -0.9163
vn -0.0918 0.9071 -0.4108
vn -0.3393 0.3950 -0.8537
vn -0.3651 0.1518 -0.9185
vn -0.1057 0.5791 -0.8084
vn -0.2238 0.9720 -0.0717
vn -0.0789 0.2777 -0.9574
vn -0.1049 0.9470 -0.3035
vn -0.1199 0.3937 -0.9114
vn -0.1031 0.9688 -0.2252
vn -0.5785 0.7700 -0.2691
vn -0.9986 0.0514 -0.0120
vn -0.2795 0.9341 -0.2220
vn -0.7269 0.6689 -0.1555
vn -0.9865 0.1614 -0.0281
vn -0.7684 0.6383 0.0468
vn -0.8525 0.5056 0.1325
vn 0.4746 0.8514 0.2232
vn -0.6444 0.7490 -0.1538
vn -0.7339 0.6094 -0.3000
vn -0.9854 0.1666 -0.0356
vn 0.8229 0.5437 -0.1652
vn -0.0514 0.9204 -0.3877
vn -0.1164 0.9368 -0.3298
vn -0.8718 0.4804 -0.0953
vn 0.0000 1.0000 0.0000
vn 0.0608 -0.0000 0.9982
vn -0.0608 0.0000 -0.9982
vn -0.0459 0.6560 -0.7533
vn 0.0097 0.9872 0.1592
vn -0.0266 0.8990 -0.4371
vn 0.1677 0.5816 0.7960
vn 0.2234 0.2109 0.9516
vn 0.2923 0.7686 0.5691
vn 0.2844 0.8880 0.3614
vn 0.2899 0.6907 0.6625
vn 0.1213 0.0140 0.9925
vn 0.0424 0.7170 0.6957
vn -0.0301 0.8686 -0.4947
vn 0.0014 0.9997 0.0225
vn -0.0404 0.7471 -0.6634
vn 0.0436 0.6970 0.7157
vn -0.0765 0.8811 -0.4667
vn -0.2893 0.8431 -0.4533
vn -0.2033 0.6130 -0.7635
vn 0.0255 0.9076 0.4191
vn -0.0583 0.2804 -0.9581
vn 0.0305 0.8646 0.5014
vn -0.0292 0.8770 -0.4797
vn -0.0593 0.2206 -0.9736
vn -0.0547 0.4355 -0.8985
vn 0.0173 0.9261 0.3769
vn 0.0317 0.7213 0.6919
vn 0.0436 0.3052 0.9513
vn -0.7426 0.6554 0.1380
vn -0.9724 0.2213 0.0737
vn -0.1275 0.9462 0.2974
vn -0.5306 0.8042 0.2679
vn -0.9911 0.1168 0.0632
vn -0.4679 0.8838 0.0000
vn -0.9270 0.3751 0.0000
vn 1.0000 0.0000 0.0000
vn -0.0458 0.0000 -0.9990
vn 0.0495 0.0000 0.9988
vn -1.0000 0.0000 0.0000
vn 0.0000 0.0000 -1.0000
vn 0.0000 0.0000 1.0000
vn -0.3514 0.8811 -0.3166
vn -0.0096 0.0064 -0.9999
vn -0.0103 0.0063 -0.9999
vn -0.0115 0.0075 -0.9999
vn -0.0001 0.0131 -0.9999
vn 0.9466 0.1506 0.2849
vn 0.8402 0.3748 -0.3919
vn 0.6988 0.3874 -0.6013
vn -0.0538 0.9982 -0.0266
vn 0.0538 -0.9982 0.0266
vn -0.7510 -0.0580 -0.6577
vn -0.2359 -0.0309 0.9713
vn -0.2667 0.9518 0.1512
vn -0.0575 0.9316 0.3589
vn 0.1705 0.9395 0.2970
vn 0.1937 0.8957 0.4003
vn 0.0455 -0.0134 0.9989
vn -0.0340 0.0088 -0.9994
vn -0.7494 0.5844 0.3112
vn 0.8750 0.3130 0.3693
vn 0.2924 0.0025 -0.9563
vn -0.9267 0.2717 -0.2598
vn -0.2930 -0.0046 0.9561
vn 0.8324 0.0000 -0.5541
vn -0.3519 -0.0098 -0.9360
vn -0.7810 0.2943 0.5508
vn 0.3538 0.0174 0.9351
vn 0.8558 0.3422 -0.3880
vn -0.3343 0.3728 -0.8656
vn -0.8383 0.2456 0.4868
vn 0.3336 0.0000 0.9427
g Ruins01_Mesh.005_BuildingWhite.002
usemtl BuildingWhite.002
s 1
f 1/1/1 2/2/1 3/3/1 4/4/1
f 2/2/2 1/1/2 5/5/2 6/6/2
f 6/6/3 5/5/3 7/7/3 8/8/3
f 8/8/4 7/7/4 9/9/4 10/10/4
f 10/10/5 9/9/5 11/11/5 12/12/5
f 12/12/6 11/11/6 13/13/6 14/14/6
f 14/14/7 13/13/7 15/15/7 16/16/7
f 16/16/8 15/15/8 17/17/8 18/18/8
f 18/18/9 17/17/9 19/19/9 20/20/9
f 20/20/10 19/19/10 21/21/10 22/22/10
f 22/22/11 21/21/11 23/23/11 24/24/11
f 24/24/12 23/23/12 25/25/12 26/26/12
f 26/26/13 25/25/13 27/27/13 28/28/13
f 28/28/14 27/27/14 29/29/14 30/30/14
f 4/4/15 3/3/15 31/31/15 32/32/15
f 32/32/16 31/31/16 33/33/16 34/34/16
f 34/34/17 33/33/17 35/35/17 36/36/17
f 36/36/18 35/35/18 37/37/18 38/38/18
f 38/38/19 37/37/19 39/39/19 40/40/19
f 40/40/20 39/39/20 41/41/20 42/42/20
f 41/41/21 39/39/21 43/43/21 44/44/21
f 44/44/22 43/43/22 45/45/22 46/46/22
f 46/46/23 45/45/23 47/47/23 48/48/23
f 48/48/24 47/47/24 49/49/24 50/50/24
f 50/50/25 49/49/25 51/51/25 52/52/25
f 52/52/26 51/51/26 53/53/26 54/54/26
f 54/54/27 53/53/27 171/55/27 55/56/27
f 55/56/28 171/55/28 56/57/28 57/58/28
f 57/58/29 56/57/29 58/59/29 59/60/29
f 59/60/30 58/59/30 60/61/30 61/62/30
f 61/62/31 60/61/31 167/63/31 165/64/31
f 165/64/32 167/63/32 62/65/32 63/66/32
f 63/66/33 62/65/33 155/67/33 156/68/33
f 65/69/34 64/70/34 66/71/34 67/72/34
f 67/72/35 66/71/35 68/73/35 69/74/35
f 70/75/36 71/76/36 72/77/36 73/78/36
f 71/76/37 70/75/37 74/79/37 75/80/37
f 73/78/38 72/77/38 76/81/38 77/82/38
f 77/82/39 76/81/39 78/83/39 79/84/39
f 79/84/40 78/83/40 80/85/40 81/86/40
f 81/86/41 80/85/41 82/87/41 83/88/41
f 83/88/42 82/87/42 84/89/42 85/90/42
f 85/90/43 84/89/43 86/91/43 87/92/43
f 87/92/44 86/91/44 88/93/44 89/94/44
f 89/94/45 88/93/45 90/95/45 91/96/45
f 91/96/46 90/95/46 92/97/46 93/98/46
f 93/98/47 92/97/47 94/99/47 95/100/47
f 75/80/48 74/79/48 96/101/48 97/102/48
f 97/102/49 96/101/49 98/103/49 99/104/49
f 99/104/50 98/103/50 100/105/50 101/106/50
f 101/106/51 100/105/51 102/107/51 103/108/51
f 103/108/52 102/107/52 104/109/52 105/110/52
f 105/110/53 104/109/53 106/111/53 107/112/53
f 107/112/54 106/111/54 108/113/54 109/114/54
f 109/114/55 108/113/55 110/115/55 111/116/55
f 111/116/56 110/115/56 122/117/56 123/118/56
f 113/119/57 112/120/57 114/121/57 115/122/57
f 115/122/58 114/121/58 116/123/58 117/124/58
f 117/124/59 116/123/59 118/125/59 119/126/59
f 119/126/60 118/125/60 120/127/60 121/128/60
f 122/117/61 112/120/61 113/119/61 123/118/61
f 124/129/62 125/130/62 126/131/62 174/132/62
f 174/132/63 126/131/63 127/133/63 128/134/63
f 128/134/64 127/133/64 129/135/64 130/136/64
f 125/130/36 124/129/36 131/137/36 132/138/36
f 125/130/65 132/138/65 134/139/65 133/140/65
f 133/140/66 134/139/66 135/141/66 178/142/66
f 178/142/67 135/141/67 137/143/67 136/144/67
f 136/144/68 137/143/68 139/145/68 138/146/68
f 138/146/69 139/145/69 140/147/69 176/148/69
f 176/148/70 140/147/70 142/149/70 141/150/70
f 141/150/71 142/149/71 144/151/71 143/152/71
f 131/137/72 124/129/72 175/153/72
f 132/138/73 131/137/73 175/153/73
f 40/40/72 42/42/72 163/154/72 145/155/72
f 42/42/74 41/41/74 162/156/74 163/154/74
f 3/3/75 2/2/75 159/157/75 147/158/75
f 1/1/72 4/4/72 145/155/72 146/159/72
f 64/70/76 155/67/76 157/160/76 149/161/76
f 63/66/77 156/68/77 158/162/77 148/163/77
f 72/77/75 71/76/75 152/164/75 153/165/75
f 70/75/72 73/78/72 154/166/72 151/167/72
f 155/67/78 64/70/78 65/69/78 156/68/78
f 155/67/76 62/65/76 166/168/76 157/160/76
f 156/68/77 65/69/77 150/169/77 158/162/77
f 150/169/77 65/69/77 67/72/77 69/74/77
f 64/70/76 149/161/76 68/73/76 66/71/76
f 1/1/72 146/159/72 7/7/72 5/5/72
f 160/170/75 28/28/75 30/30/75
f 161/171/72 29/29/72 27/27/72
f 25/25/72 23/23/72 161/171/72 27/27/72
f 28/28/75 160/170/75 24/24/75 26/26/75
f 24/24/75 160/170/75 20/20/75 22/22/75
f 20/20/75 160/170/75 16/16/75 18/18/75
f 159/157/75 2/2/75 6/6/75 8/8/75
f 159/157/75 8/8/75 10/10/75 12/12/75
f 159/157/75 12/12/75 14/14/75 16/16/75
f 7/7/72 146/159/72 11/11/72 9/9/72
f 11/11/72 146/159/72 15/15/72 13/13/72
f 146/159/72 161/171/72 17/17/72 15/15/72
f 161/171/72 23/23/72 21/21/72 19/19/72
f 17/17/72 161/171/72 19/19/72
f 159/157/75 16/16/75 160/170/75
f 60/61/76 58/59/76 170/172/76
f 59/60/77 61/62/77 164/173/77
f 59/60/77 164/173/77 162/156/77
f 59/60/77 162/156/77 55/56/77 57/58/77
f 55/56/77 162/156/77 52/52/77 54/54/77
f 162/156/77 41/41/77 44/44/77 46/46/77
f 162/156/77 46/46/77 48/48/77 50/50/77
f 52/52/77 162/156/77 50/50/77
f 164/173/77 61/62/77 165/64/77 148/163/77
f 165/64/77 63/66/77 148/163/77
f 60/61/76 170/172/76 166/174/76 167/63/76
f 166/174/76 62/65/76 167/63/76
f 39/39/75 37/37/75 172/175/75 173/176/75
f 43/43/76 39/39/76 173/176/76 45/45/76
f 53/53/76 51/51/76 169/177/76
f 53/53/76 169/177/76 170/172/76 171/55/76
f 170/172/76 58/59/76 171/55/76
f 171/55/76 58/59/76 56/57/76
f 172/175/75 147/158/75 168/178/75 173/176/75
f 173/176/76 168/178/76 169/177/76 45/45/76
f 172/175/75 37/37/75 35/35/75 33/33/75
f 51/51/76 49/49/76 47/47/76 45/45/76
f 51/51/76 45/45/76 169/177/76
f 31/31/75 3/3/75 147/158/75 33/33/75
f 33/33/75 147/158/75 172/175/75
f 145/179/72 4/4/72 32/32/72 34/34/72
f 145/179/72 34/34/72 36/36/72 38/38/72
f 40/40/72 145/155/72 38/38/72
f 142/149/79 140/147/79 175/180/79 144/151/79
f 175/153/80 140/147/80 139/145/80 137/143/80
f 132/138/81 175/153/81 135/141/81 134/181/81
f 135/141/82 175/153/82 137/143/82
f 126/131/75 125/130/75 177/182/75
f 125/130/77 133/140/77 177/182/77
f 126/131/75 177/183/75 129/184/75 127/133/75
f 124/185/72 174/186/72 175/180/72
f 174/186/72 128/187/72 130/188/72 175/180/72
f 133/140/77 178/142/77 177/182/77
f 176/148/77 141/150/77 143/152/77 177/182/77
f 178/142/77 176/148/77 177/182/77
f 176/148/77 178/189/77 136/144/77 138/146/77
f 119/190/75 121/191/75 115/192/75 117/193/75
f 120/194/72 118/195/72 116/196/72 114/197/72
f 115/192/75 121/191/75 152/198/75 71/76/75
f 111/199/75 123/200/75 113/201/75 115/192/75
f 115/122/75 71/76/75 109/114/75 111/116/75
f 107/112/75 109/114/75 103/108/75 105/110/75
f 71/76/75 75/80/75 97/102/75 99/104/75
f 71/76/75 99/104/75 101/106/75 103/108/75
f 70/75/72 151/167/72 120/127/72 114/197/72
f 114/197/72 112/120/72 122/117/72 110/115/72
f 108/113/72 106/111/72 104/109/72 102/107/72
f 98/103/72 96/101/72 74/79/72 70/75/72
f 102/107/72 100/105/72 98/103/72 70/75/72
f 102/107/72 70/75/72 114/197/72 110/115/72
f 108/113/72 102/107/72 110/115/72
f 71/76/75 103/108/75 109/114/75
f 79/202/72 81/203/72 73/78/72 77/82/72
f 85/204/72 87/205/72 81/203/72 83/206/72
f 154/166/72 73/78/72 93/207/72 95/208/72
f 93/207/72 73/78/72 89/209/72 91/210/72
f 89/209/72 73/78/72 81/203/72 87/205/72
f 72/77/75 153/165/75 94/211/75 92/212/75
f 80/213/75 78/83/75 76/214/75 72/77/75
f 86/215/75 84/216/75 82/217/75 80/213/75
f 72/77/75 92/212/75 90/218/75 88/219/75
f 72/77/75 88/219/75 86/215/75 80/213/75
f 179/220/83 180/221/83 181/222/83 182/223/83
f 182/223/84 181/222/84 183/224/84 184/225/84
f 184/225/85 183/224/85 185/226/85 186/227/85
f 187/228/86 184/225/86 186/227/86
f 188/229/87 185/226/87 183/224/87
f 181/222/87 180/221/87 188/229/87 183/224/87
f 184/225/86 187/228/86 179/220/86 182/223/86
f 185/230/88 188/231/88 187/228/88 186/227/88
f 179/232/89 187/228/89 188/231/89 180/221/89
f 189/233/90 190/234/90 191/235/90 192/236/90
f 193/237/91 194/238/91 195/239/91 196/240/91
f 197/241/92 198/242/92 199/243/92 200/244/92
f 201/245/93 202/246/93 203/247/93 204/248/93
f 190/234/94 189/233/94 205/249/94 206/250/94
f 191/235/72 190/234/72 206/250/72 207/251/72
f 192/236/95 191/235/95 207/251/95 208/252/95
f 189/233/96 192/236/96 208/252/96 205/249/96
f 194/238/97 193/237/97 209/253/97 210/254/97
f 195/239/98 194/238/98 210/254/98 211/255/98
f 196/240/99 195/239/99 211/255/99 212/256/99
f 193/237/100 196/240/100 212/256/100 209/253/100
f 198/242/101 197/241/101 213/257/101 214/258/101
f 199/243/102 198/242/102 214/258/102 215/259/102
f 200/244/103 199/243/103 215/259/103 216/260/103
f 197/241/104 200/244/104 216/260/104 213/257/104
f 202/246/105 201/245/105 217/261/105 218/262/105
f 203/247/106 202/246/106 218/262/106 219/263/106
f 204/248/107 203/247/107 219/263/107 220/264/107
f 201/245/108 204/248/108 220/264/108 217/261/108
