{
    "asset" : {
        "generator" : "Khronos glTF Blender I/O v1.3.48",
        "version" : "2.0"
    },
    "scene" : 0,
    "scenes" : [
        {
            "name" : "Scene",
            "nodes" : [
                8
            ]
        }
    ],
    "nodes" : [
        {
            "name" : "EndJointNub",
            "rotation" : [
                9.255155930532055e-08,
                -1.1159782786762662e-07,
                0.7055206298828125,
                0.7086893916130066
            ],
            "scale" : [
                0.9999999403953552,
                0.9999998807907104,
                1
            ],
            "translation" : [
                14.447325706481934,
                -2.074438270938117e-06,
                -5.745696853409754e-06
            ]
        },
        {
            "children" : [
                0
            ],
            "name" : "EndJoint",
            "rotation" : [
                -0.5054273009300232,
                0.4945131540298462,
                0.5076382160186768,
                0.4922432005405426
            ],
            "scale" : [
                0.9999999403953552,
                0.9999998211860657,
                0.9999998807907104
            ],
            "translation" : [
                59.299076080322266,
                0.7357453107833862,
                8.868500117387157e-06
            ]
        },
        {
            "children" : [
                1
            ],
            "name" : "DriveJoint",
            "rotation" : [
                -0.5802670121192932,
                0.8144263029098511,
                -6.917322536992287e-08,
                -9.708718096135271e-08
            ],
            "scale" : [
                1.000000238418579,
                1.000000238418579,
                1
            ],
            "translation" : [
                204.52743530273438,
                0.300616055727005,
                0
            ]
        },
        {
            "children" : [
                2
            ],
            "name" : "HingeJoint",
            "rotation" : [
                0,
                3.702226164237877e-17,
                -0.6617782711982727,
                0.7496996521949768
            ],
            "translation" : [
                116.21063232421875,
                -1.2385616302490234,
                -1.4901161193847656e-08
            ]
        },
        {
            "children" : [
                3
            ],
            "name" : "ArmJoint",
            "rotation" : [
                -0.7024315595626831,
                0.08117827028036118,
                0.08117827028036118,
                0.7024315595626831
            ],
            "translation" : [
                -33.9282112121582,
                0.2301836460828781,
                -338.2287292480469
            ]
        },
        {
            "name" : "HoldJointNub",
            "rotation" : [
                0,
                0,
                -0.7071068286895752,
                0.7071068286895752
            ],
            "translation" : [
                334.35797119140625,
                0,
                0
            ]
        },
        {
            "children" : [
                5
            ],
            "name" : "HoldJoint",
            "rotation" : [
                -0.5,
                0.5000000596046448,
                0.5000000596046448,
                0.5
            ],
            "translation" : [
                -32.96628189086914,
                -5.551115123125783e-17,
                1.3615748882293701
            ]
        },
        {
            "mesh" : 0,
            "name" : "Pumpjack",
            "skin" : 0
        },
        {
            "children" : [
                7,
                4,
                6
            ],
            "name" : "Armature",
            "rotation" : [
                0.7071068286895752,
                0,
                0,
                0.7071068286895752
            ],
            "scale" : [
                0.009999999776482582,
                0.009999999776482582,
                0.009999999776482582
            ]
        }
    ],
    "animations" : [
        {
            "channels" : [
                {
                    "sampler" : 0,
                    "target" : {
                        "node" : 4,
                        "path" : "translation"
                    }
                },
                {
                    "sampler" : 1,
                    "target" : {
                        "node" : 4,
                        "path" : "rotation"
                    }
                },
                {
                    "sampler" : 2,
                    "target" : {
                        "node" : 4,
                        "path" : "scale"
                    }
                },
                {
                    "sampler" : 3,
                    "target" : {
                        "node" : 3,
                        "path" : "translation"
                    }
                },
                {
                    "sampler" : 4,
                    "target" : {
                        "node" : 3,
                        "path" : "rotation"
                    }
                },
                {
                    "sampler" : 5,
                    "target" : {
                        "node" : 3,
                        "path" : "scale"
                    }
                },
                {
                    "sampler" : 6,
                    "target" : {
                        "node" : 2,
                        "path" : "translation"
                    }
                },
                {
                    "sampler" : 7,
                    "target" : {
                        "node" : 2,
                        "path" : "rotation"
                    }
                },
                {
                    "sampler" : 8,
                    "target" : {
                        "node" : 2,
                        "path" : "scale"
                    }
                },
                {
                    "sampler" : 9,
                    "target" : {
                        "node" : 1,
                        "path" : "translation"
                    }
                },
                {
                    "sampler" : 10,
                    "target" : {
                        "node" : 1,
                        "path" : "rotation"
                    }
                },
                {
                    "sampler" : 11,
                    "target" : {
                        "node" : 1,
                        "path" : "scale"
                    }
                },
                {
                    "sampler" : 12,
                    "target" : {
                        "node" : 0,
                        "path" : "translation"
                    }
                },
                {
                    "sampler" : 13,
                    "target" : {
                        "node" : 0,
                        "path" : "rotation"
                    }
                },
                {
                    "sampler" : 14,
                    "target" : {
                        "node" : 0,
                        "path" : "scale"
                    }
                },
                {
                    "sampler" : 15,
                    "target" : {
                        "node" : 6,
                        "path" : "translation"
                    }
                },
                {
                    "sampler" : 16,
                    "target" : {
                        "node" : 6,
                        "path" : "rotation"
                    }
                },
                {
                    "sampler" : 17,
                    "target" : {
                        "node" : 6,
                        "path" : "scale"
                    }
                },
                {
                    "sampler" : 18,
                    "target" : {
                        "node" : 5,
                        "path" : "translation"
                    }
                },
                {
                    "sampler" : 19,
                    "target" : {
                        "node" : 5,
                        "path" : "rotation"
                    }
                },
                {
                    "sampler" : 20,
                    "target" : {
                        "node" : 5,
                        "path" : "scale"
                    }
                }
            ],
            "name" : "Armature|Take 001|BaseLayer",
            "samplers" : [
                {
                    "input" : 13,
                    "interpolation" : "LINEAR",
                    "output" : 14
                },
                {
                    "input" : 13,
                    "interpolation" : "LINEAR",
                    "output" : 15
                },
                {
                    "input" : 13,
                    "interpolation" : "LINEAR",
                    "output" : 16
                },
                {
                    "input" : 13,
                    "interpolation" : "LINEAR",
                    "output" : 17
                },
                {
                    "input" : 13,
                    "interpolation" : "LINEAR",
                    "output" : 18
                },
                {
                    "input" : 13,
                    "interpolation" : "LINEAR",
                    "output" : 19
                },
                {
                    "input" : 13,
                    "interpolation" : "LINEAR",
                    "output" : 20
                },
                {
                    "input" : 13,
                    "interpolation" : "LINEAR",
                    "output" : 21
                },
                {
                    "input" : 13,
                    "interpolation" : "LINEAR",
                    "output" : 22
                },
                {
                    "input" : 13,
                    "interpolation" : "LINEAR",
                    "output" : 23
                },
                {
                    "input" : 13,
                    "interpolation" : "LINEAR",
                    "output" : 24
                },
                {
                    "input" : 13,
                    "interpolation" : "LINEAR",
                    "output" : 25
                },
                {
                    "input" : 13,
                    "interpolation" : "LINEAR",
                    "output" : 26
                },
                {
                    "input" : 13,
                    "interpolation" : "LINEAR",
                    "output" : 27
                },
                {
                    "input" : 13,
                    "interpolation" : "LINEAR",
                    "output" : 28
                },
                {
                    "input" : 13,
                    "interpolation" : "LINEAR",
                    "output" : 29
                },
                {
                    "input" : 13,
                    "interpolation" : "LINEAR",
                    "output" : 30
                },
                {
                    "input" : 13,
                    "interpolation" : "LINEAR",
                    "output" : 31
                },
                {
                    "input" : 13,
                    "interpolation" : "LINEAR",
                    "output" : 32
                },
                {
                    "input" : 13,
                    "interpolation" : "LINEAR",
                    "output" : 33
                },
                {
                    "input" : 13,
                    "interpolation" : "LINEAR",
                    "output" : 34
                }
            ]
        }
    ],
    "materials" : [
        {
            "doubleSided" : true,
            "emissiveFactor" : [
                0,
                0,
                0
            ],
            "name" : "OilDrums",
            "pbrMetallicRoughness" : {
                "baseColorFactor" : [
                    0.12370944768190384,
                    0.09936294704675674,
                    0.08220016956329346,
                    1
                ],
                "metallicFactor" : 1,
                "roughnessFactor" : 0.858578622341156
            }
        },
        {
            "doubleSided" : true,
            "emissiveFactor" : [
                0,
                0,
                0
            ],
            "name" : "BuildingStone",
            "pbrMetallicRoughness" : {
                "baseColorFactor" : [
                    0.08353126049041748,
                    0.08353126049041748,
                    0.08353126049041748,
                    1
                ],
                "metallicFactor" : 1,
                "roughnessFactor" : 0.858578622341156
            }
        }
    ],
    "meshes" : [
        {
            "name" : "Mesh",
            "primitives" : [
                {
                    "attributes" : {
                        "POSITION" : 0,
                        "NORMAL" : 1,
                        "TEXCOORD_0" : 2,
                        "JOINTS_0" : 3,
                        "WEIGHTS_0" : 4
                    },
                    "indices" : 5,
                    "material" : 0
                },
                {
                    "attributes" : {
                        "POSITION" : 6,
                        "NORMAL" : 7,
                        "TEXCOORD_0" : 8,
                        "JOINTS_0" : 9,
                        "WEIGHTS_0" : 10
                    },
                    "indices" : 11,
                    "material" : 1
                }
            ]
        }
    ],
    "skins" : [
        {
            "inverseBindMatrices" : 12,
            "joints" : [
                4,
                3,
                2,
                1,
                0,
                6,
                5
            ],
            "name" : "Armature"
        }
    ],
    "accessors" : [
        {
            "bufferView" : 0,
            "componentType" : 5126,
            "count" : 1078,
            "max" : [
                1.8136790990829468,
                4.407212257385254,
                0.8637140393257141
            ],
            "min" : [
                -2.0966334342956543,
                0.40479549765586853,
                -0.8637146353721619
            ],
            "type" : "VEC3"
        },
        {
            "bufferView" : 1,
            "componentType" : 5126,
            "count" : 1078,
            "type" : "VEC3"
        },
        {
            "bufferView" : 2,
            "componentType" : 5126,
            "count" : 1078,
            "type" : "VEC2"
        },
        {
            "bufferView" : 3,
            "componentType" : 5123,
            "count" : 1078,
            "type" : "VEC4"
        },
        {
            "bufferView" : 4,
            "componentType" : 5126,
            "count" : 1078,
            "type" : "VEC4"
        },
        {
            "bufferView" : 5,
            "componentType" : 5123,
            "count" : 1650,
            "type" : "SCALAR"
        },
        {
            "bufferView" : 6,
            "componentType" : 5126,
            "count" : 64,
            "max" : [
                2.0966334342956543,
                0.4660535156726837,
                1.1408004760742188
            ],
            "min" : [
                -1.2916206121444702,
                -0.0017487070290371776,
                -1.1408013105392456
            ],
            "type" : "VEC3"
        },
        {
            "bufferView" : 7,
            "componentType" : 5126,
            "count" : 64,
            "type" : "VEC3"
        },
        {
            "bufferView" : 8,
            "componentType" : 5126,
            "count" : 64,
            "type" : "VEC2"
        },
        {
            "bufferView" : 9,
            "componentType" : 5123,
            "count" : 64,
            "type" : "VEC4"
        },
        {
            "bufferView" : 10,
            "componentType" : 5126,
            "count" : 64,
            "type" : "VEC4"
        },
        {
            "bufferView" : 11,
            "componentType" : 5123,
            "count" : 90,
            "type" : "SCALAR"
        },
        {
            "bufferView" : 12,
            "componentType" : 5126,
            "count" : 7,
            "type" : "MAT4"
        },
        {
            "bufferView" : 13,
            "componentType" : 5126,
            "count" : 101,
            "max" : [
                3.3666666666666667
            ],
            "min" : [
                0.03333333333333333
            ],
            "type" : "SCALAR"
        },
        {
            "bufferView" : 14,
            "componentType" : 5126,
            "count" : 101,
            "type" : "VEC3"
        },
        {
            "bufferView" : 15,
            "componentType" : 5126,
            "count" : 101,
            "type" : "VEC4"
        },
        {
            "bufferView" : 16,
            "componentType" : 5126,
            "count" : 101,
            "type" : "VEC3"
        },
        {
            "bufferView" : 17,
            "componentType" : 5126,
            "count" : 101,
            "type" : "VEC3"
        },
        {
            "bufferView" : 18,
            "componentType" : 5126,
            "count" : 101,
            "type" : "VEC4"
        },
        {
            "bufferView" : 19,
            "componentType" : 5126,
            "count" : 101,
            "type" : "VEC3"
        },
        {
            "bufferView" : 20,
            "componentType" : 5126,
            "count" : 101,
            "type" : "VEC3"
        },
        {
            "bufferView" : 21,
            "componentType" : 5126,
            "count" : 101,
            "type" : "VEC4"
        },
        {
            "bufferView" : 22,
            "componentType" : 5126,
            "count" : 101,
            "type" : "VEC3"
        },
        {
            "bufferView" : 23,
            "componentType" : 5126,
            "count" : 101,
            "type" : "VEC3"
        },
        {
            "bufferView" : 24,
            "componentType" : 5126,
            "count" : 101,
            "type" : "VEC4"
        },
        {
            "bufferView" : 25,
            "componentType" : 5126,
            "count" : 101,
            "type" : "VEC3"
        },
        {
            "bufferView" : 26,
            "componentType" : 5126,
            "count" : 101,
            "type" : "VEC3"
        },
        {
            "bufferView" : 27,
            "componentType" : 5126,
            "count" : 101,
            "type" : "VEC4"
        },
        {
            "bufferView" : 28,
            "componentType" : 5126,
            "count" : 101,
            "type" : "VEC3"
        },
        {
            "bufferView" : 29,
            "componentType" : 5126,
            "count" : 101,
            "type" : "VEC3"
        },
        {
            "bufferView" : 30,
            "componentType" : 5126,
            "count" : 101,
            "type" : "VEC4"
        },
        {
            "bufferView" : 31,
            "componentType" : 5126,
            "count" : 101,
            "type" : "VEC3"
        },
        {
            "bufferView" : 32,
            "componentType" : 5126,
            "count" : 101,
            "type" : "VEC3"
        },
        {
            "bufferView" : 33,
            "componentType" : 5126,
            "count" : 101,
            "type" : "VEC4"
        },
        {
            "bufferView" : 34,
            "componentType" : 5126,
            "count" : 101,
            "type" : "VEC3"
        }
    ],
    "bufferViews" : [
        {
            "buffer" : 0,
            "byteLength" : 12936,
            "byteOffset" : 0
        },
        {
            "buffer" : 0,
            "byteLength" : 12936,
            "byteOffset" : 12936
        },
        {
            "buffer" : 0,
            "byteLength" : 8624,
            "byteOffset" : 25872
        },
        {
            "buffer" : 0,
            "byteLength" : 8624,
            "byteOffset" : 34496
        },
        {
            "buffer" : 0,
            "byteLength" : 17248,
            "byteOffset" : 43120
        },
        {
            "buffer" : 0,
            "byteLength" : 3300,
            "byteOffset" : 60368
        },
        {
            "buffer" : 0,
            "byteLength" : 768,
            "byteOffset" : 63668
        },
        {
            "buffer" : 0,
            "byteLength" : 768,
            "byteOffset" : 64436
        },
        {
            "buffer" : 0,
            "byteLength" : 512,
            "byteOffset" : 65204
        },
        {
            "buffer" : 0,
            "byteLength" : 512,
            "byteOffset" : 65716
        },
        {
            "buffer" : 0,
            "byteLength" : 1024,
            "byteOffset" : 66228
        },
        {
            "buffer" : 0,
            "byteLength" : 180,
            "byteOffset" : 67252
        },
        {
            "buffer" : 0,
            "byteLength" : 448,
            "byteOffset" : 67432
        },
        {
            "buffer" : 0,
            "byteLength" : 404,
            "byteOffset" : 67880
        },
        {
            "buffer" : 0,
            "byteLength" : 1212,
            "byteOffset" : 68284
        },
        {
            "buffer" : 0,
            "byteLength" : 1616,
            "byteOffset" : 69496
        },
        {
            "buffer" : 0,
            "byteLength" : 1212,
            "byteOffset" : 71112
        },
        {
            "buffer" : 0,
            "byteLength" : 1212,
            "byteOffset" : 72324
        },
        {
            "buffer" : 0,
            "byteLength" : 1616,
            "byteOffset" : 73536
        },
        {
            "buffer" : 0,
            "byteLength" : 1212,
            "byteOffset" : 75152
        },
        {
            "buffer" : 0,
            "byteLength" : 1212,
            "byteOffset" : 76364
        },
        {
            "buffer" : 0,
            "byteLength" : 1616,
            "byteOffset" : 77576
        },
        {
            "buffer" : 0,
            "byteLength" : 1212,
            "byteOffset" : 79192
        },
        {
            "buffer" : 0,
            "byteLength" : 1212,
            "byteOffset" : 80404
        },
        {
            "buffer" : 0,
            "byteLength" : 1616,
            "byteOffset" : 81616
        },
        {
            "buffer" : 0,
            "byteLength" : 1212,
            "byteOffset" : 83232
        },
        {
            "buffer" : 0,
            "byteLength" : 1212,
            "byteOffset" : 84444
        },
        {
            "buffer" : 0,
            "byteLength" : 1616,
            "byteOffset" : 85656
        },
        {
            "buffer" : 0,
            "byteLength" : 1212,
            "byteOffset" : 87272
        },
        {
            "buffer" : 0,
            "byteLength" : 1212,
            "byteOffset" : 88484
        },
        {
            "buffer" : 0,
            "byteLength" : 1616,
            "byteOffset" : 89696
        },
        {
            "buffer" : 0,
            "byteLength" : 1212,
            "byteOffset" : 91312
        },
        {
            "buffer" : 0,
            "byteLength" : 1212,
            "byteOffset" : 92524
        },
        {
            "buffer" : 0,
            "byteLength" : 1616,
            "byteOffset" : 93736
        },
        {
            "buffer" : 0,
            "byteLength" : 1212,
            "byteOffset" : 95352
        }
    ],
    "buffers" : [
        {
            "byteLength" : 96564,
            "uri" : "data:application/octet-stream;base64,"
        }
    ]
}
